<svg xmlns="http://www.w3.org/2000/svg" width="72" height="72" fill="none" style=""><rect id="backgroundrect" width="100%" height="100%" x="0" y="0" fill="none" stroke="none" style="" class=""/>






<g class="currentLayer" style=""><title>Layer 1</title><path d="M36.067816689300535,0 C28.934316689300537,-8.506660000000001e-8 21.960916689300536,2.11534 16.029616689300536,6.07852 C10.098316689300537,10.0417 5.475406689300537,15.6747 2.745516689300537,22.2652 C0.015629289300537114,28.8558 -0.6986343106994631,36.1078 0.6930476893005373,43.1043 C2.084726689300537,50.1007 5.519856689300537,56.5274 10.564016689300537,61.571600000000004 C15.608216689300537,66.6157 22.034816689300538,70.0509 29.03131668930054,71.4426 C36.027816689300536,72.8342 43.27981668930054,72.12 49.87031668930054,69.3901 C56.46091668930054,66.6602 62.093916689300535,62.0373 66.05711668930054,56.106 C70.02021668930054,50.1747 72.13561668930053,43.2013 72.13561668930053,36.0678 L54.10171668930054,36.0678 C54.10171668930054,39.6346 53.044016689300534,43.1212 51.062416689300534,46.0869 C49.08081668930054,49.0526 46.264316689300536,51.364 42.969116689300535,52.7289 C39.67381668930054,54.0939 36.04781668930054,54.451 32.549616689300535,53.7552 C29.05131668930054,53.0593 25.838016689300538,51.3418 23.315916689300536,48.8197 C20.793816689300538,46.2976 19.076316689300537,43.0843 18.38041668930054,39.586 C17.684616689300537,36.0878 18.041716689300536,32.4618 19.406616689300538,29.1665 C20.771616689300537,25.8713 23.083016689300536,23.0547 26.048716689300537,21.0732 C29.014416689300536,19.0916 32.501016689300535,18.0339 36.067816689300535,18.0339 L36.067816689300535,0 z" fill="white" id="svg_3" class=""/><path d="M36.067816689300535,0 C31.331316689300536,-5.64821e-8 26.64121668930054,0.9329210000000001 22.265216689300537,2.7455 C17.889316689300536,4.55807 13.913216689300537,7.21481 10.564016689300537,10.564 C7.214826689300537,13.9132 4.558086689300537,17.8893 2.745516689300537,22.2653 C0.9329366893005372,26.6412 0.000015974110537109376,31.3313 0.000016689300537109375,36.0678 L18.033916689300536,36.0678 C18.033916689300536,33.699600000000004 18.500416689300536,31.3545 19.406616689300538,29.1665 C20.312916689300536,26.9785 21.641316689300538,24.9905 23.315916689300536,23.3159 C24.990516689300538,21.6413 26.978516689300537,20.3129 29.166516689300536,19.4066 C31.35451668930054,18.5004 33.69951668930054,18.0339 36.067816689300535,18.0339 L36.067816689300535,0 z" fill="#5CE1E6" id="svg_4" class=""/><circle cx="36.06781530380249" cy="36.06779861450195" r="11.271200180053711" fill="#5CE1E6" id="svg_5" class=""/><path d="M47.339016689300536,36.0678 C47.339016689300536,34.5877 47.04751668930054,33.122 46.48101668930054,31.7545 C45.91461668930054,30.387 45.08441668930054,29.1445 44.03771668930054,28.0979 C42.99111668930054,27.0513 41.74861668930054,26.221 40.38111668930054,25.6546 C39.013616689300534,25.0882 37.54801668930054,24.7966 36.067816689300535,24.7966 C34.58761668930054,24.7966 33.12201668930054,25.0882 31.754516689300537,25.6546 C30.387016689300538,26.221 29.144516689300538,27.0513 28.097916689300536,28.0979 C27.05121668930054,29.1445 26.221016689300537,30.387 25.654616689300536,31.7545 C25.088216689300538,33.122 24.79661668930054,34.5877 24.79661668930054,36.0678 L36.067816689300535,36.0678 H47.339016689300536 z" fill="white" id="svg_6" class=""/></g></svg>